<svg xmlns="http://www.w3.org/2000/svg" role="img" viewBox="17.52 10.52 388.96 68.71"><path fill="#DA2128" d="M196.5 60.16c-1.88-1.08-3.44-2.64-4.64-4.62-.61-1.04-1.04-2.23-1.32-3.53-.28-1.31-.41-2.81-.4-4.52l.03-21.91h-5.12l7.49-7.59 7.58 7.58h-5l-.03 22.08c0 3.05.74 5.27 2.1 6.89 1.39 1.62 3.04 2.38 5.43 2.4 2.22-.01 3.88-.72 5.38-2.27 1.47-1.56 2.18-3.39 2.2-5.84 0-2.48-.71-4.33-2.15-5.87-1.09-1.14-2.46-1.84-3.96-2.13v4.74l-7.53-7.56 7.55-7.61v5.43c1.26.13 2.41.42 3.56.91 1.56.66 2.94 1.63 4.09 2.89 1.13 1.22 2 2.63 2.59 4.19.6 1.56.89 3.24.89 4.98 0 3.63-1.2 6.84-3.57 9.28-2.33 2.44-5.42 3.71-8.9 3.7-2.3 0-4.4-.55-6.28-1.63l.01.01zm24.04-30.64c.27-.2.56-.36.88-.48.32-.12.65-.18.98-.18.37 0 .71.05 1.01.15.3.1.6.27.9.51.3.24.53.51.68.83.15.32.23.7.23 1.14 0 .44-.08.83-.23 1.16-.15.34-.36.63-.63.86-.3.24-.6.41-.9.51-.3.1-.62.15-.96.15-.34.03-.67 0-1.01-.1-.34-.1-.65-.27-.96-.51-.3-.23-.52-.53-.65-.89-.14-.36-.2-.75-.2-1.19v-.1c0-.37.07-.72.2-1.04.13-.32.35-.6.65-.83l.01.01zm3.87 31.81h-4.38V37.02h4.38v24.31zm9.55-35.5v19.95h2.36c.3.07.6.07.91.02.3-.05.57-.13.8-.23.27-.1.53-.24.78-.43s.49-.43.73-.73c.1-.17.22-.34.35-.51.13-.17.26-.35.4-.56.13-.2.27-.43.4-.69.12-.22.24-.45.35-.68l.05-.1 2.77-4.86h5.13c-.04.14-.08.25-.13.36l-.12.25c-.07.1-.12.2-.15.28-.03.09-.08.16-.15.23-.03.1-.08.2-.13.28-.05.09-.09.16-.12.23-.07.1-.12.19-.15.28-.03.08-.09.16-.15.23-.13.24-.26.47-.38.69-.12.22-.24.43-.38.63v.02c-.14.23-.26.44-.37.64-.12.2-.22.41-.33.61-.4.71-.8 1.36-1.21 1.98-.4.61-.8 1.16-1.21 1.67-.4.51-.78.9-1.13 1.19-.35.29-.7.46-1.03.53.87.1 1.64.3 2.31.61.67.3 1.22.73 1.66 1.27.44.54.78 1.11 1.04 1.7.25.59.43 1.21.53 1.85v.51c0 .14.01.17.05.2v8.11h-4.38v-6.38c0-.64-.09-1.24-.27-1.8-.18-.56-.46-1.06-.83-1.49-.33-.47-.84-.82-1.53-1.04-.69-.22-1.51-.33-2.49-.33l-3.97-.1v11.14h-4.38V25.83h4.38-.01zm34.26 17.45c.07.05.13.09.2.13l-11.87 6.79 1.96 3.54 16.65-9.07c-.61-1.08-1.3-2.09-2.09-3.04-.79-.94-1.67-1.8-2.64-2.58-1.01-.77-2.11-1.36-3.29-1.75-1.19-.39-2.48-.58-3.85-.58-.23 0-.48 0-.73.03-.25.02-.51.04-.78.08-.14.03-.26.06-.38.08-.12.02-.24.02-.38.02-.13.04-.26.06-.38.08-.12.02-.24.04-.38.08-1.21.3-2.36.79-3.47 1.47-1.11.67-2.16 1.54-3.17 2.58-1.01 1.05-1.76 2.3-2.26 3.75-.51 1.45-.76 3.12-.76 5.01 0 1.79.3 3.42.9 4.89.6 1.47 1.53 2.79 2.77 3.98 1.21 1.15 2.57 2 4.07 2.56 1.51.56 3.15.84 4.93.84 1.54 0 2.94-.18 4.2-.53 1.26-.35 2.36-.89 3.3-1.59.97-.71 1.79-1.47 2.46-2.28.67-.81 1.21-1.64 1.61-2.48.07-.17.12-.33.18-.48.05-.15.11-.31.18-.48.03-.11.06-.23.1-.36l.03-.1c.05-.17.09-.32.13-.46.06-.3.11-.6.15-.89.03-.29.05-.57.05-.84v-.25s-.05-.08-.05-.13v-.43s-.05-.08-.05-.13v-.18l-4.38-.2-.05.1c-.3 1.15-.65 2.18-1.03 3.09-.39.91-.82 1.71-1.29 2.38-.47.64-1.17 1.12-2.09 1.44-.92.32-2.07.48-3.45.48-1.27 0-2.4-.2-3.4-.61-.99-.4-1.82-1.01-2.49-1.82-.67-.81-1.18-1.66-1.53-2.56-.36-.89-.53-1.83-.53-2.86v-.1c0-1.08.16-2.13.5-3.14.34-1.01.84-1.97 1.51-2.88.67-.91 1.5-1.61 2.49-2.08.99-.47 2.14-.71 3.44-.71.57 0 1.08.03 1.54.1.45.07.85.19 1.18.36.17.07.32.14.46.23.13.09.26.16.4.23.1.1.21.19.33.28.08.06.17.12.24.17l.09.06c.1.1.19.2.27.3.09.1.16.19.23.25.06.1.13.18.2.23l.02-.02zm20.77 13.65c.07.07.14.1.21.1h.6c.07.03.14.05.2.05h.61c.4 0 .78-.03 1.13-.08.35-.05.69-.14 1.03-.28.33-.1.58-.3.75-.58.17-.29.25-.65.25-1.09 0-.47-.12-.89-.37-1.26s-.63-.69-1.14-.96c-.5-.27-1.08-.53-1.74-.76-.65-.24-1.37-.47-2.14-.71-.1-.03-.2-.06-.3-.08-.1-.02-.2-.04-.3-.08-.13-.03-.25-.06-.35-.08-.1-.02-.2-.04-.3-.08-.24-.06-.46-.13-.68-.2l-.1-.03c-.18-.06-.36-.11-.53-.17-1.07-.27-2.04-.62-2.89-1.06-.85-.44-1.62-.93-2.29-1.47-.63-.57-1.11-1.24-1.43-2-.32-.76-.48-1.63-.48-2.61 0-1.39.24-2.52.71-3.42.47-.89 1.17-1.51 2.12-1.85.94-.37 1.96-.65 3.07-.84 1.11-.18 2.31-.28 3.62-.28l9.11-.1v3.95h-9.51c-.6.07-1.16.14-1.69.2-.52.07-1 .17-1.43.3-.44.13-.75.34-.95.61-.2.27-.3.61-.3 1.01 0 .44.11.84.32 1.19.22.35.55.65.98.89.43.23.9.45 1.38.63.49.19 1 .36 1.54.53h.03c.15.04.3.07.44.1.05 0 .09.02.14.03l.29.07c.07.04.13.06.2.08.07.02.15.03.25.03.07.03.13.06.2.08.07.02.14.02.2.02l.11.04.19.07.14.05c.05.02.11.04.16.05.07 0 .12 0 .15.03.04.02.09.03.15.03.03.03.08.06.13.07.05.02.09.03.12.03 1.47.51 2.73 1.03 3.77 1.57s1.85 1.1 2.42 1.67c.57.58 1 1.26 1.28 2.05.28.79.43 1.68.43 2.66-.04 1.12-.21 2.05-.53 2.81-.32.76-.76 1.36-1.33 1.8-.54.44-1.12.79-1.73 1.06-.62.27-1.27.46-1.94.56-.24.03-.46.05-.68.05h-.93c-.1 0-.2.02-.3.05h-1.56c-.1-.03-.19-.05-.28-.05h-10.49v-4.41h10.26v.01zM306.45 39V25.83h-4.38v35.51h4.38V46.98c0-.15.02-.31.05-.48.02-.1.04-.21.06-.31.01-.07.03-.14.04-.22.03-.19.06-.36.1-.53.16-.58.4-1.13.7-1.67.3-.54.69-1.06 1.16-1.57.47-.47 1.06-.83 1.76-1.09.7-.25 1.53-.38 2.46-.38.77 0 1.48.15 2.14.43.65.29 1.25.72 1.79 1.29.53.54.94 1.2 1.2 1.98.27.77.4 1.64.4 2.58v14.34h4.38V44.67c0-1.28-.24-2.44-.7-3.47-.47-1.03-1.18-1.92-2.11-2.66-.94-.74-1.97-1.3-3.1-1.67-1.12-.37-2.32-.56-3.59-.56-.71 0-1.36.07-1.96.2-.6.14-1.17.34-1.71.61-.54.27-1.06.57-1.58.89-.52.32-1.02.65-1.48.99h-.01zm38.42 8.35c0-.74-.14-1.48-.43-2.2-.29-.73-.71-1.41-1.28-2.05-.57-.67-1.38-1.18-2.42-1.52-1.04-.34-2.3-.51-3.77-.51-.23 0-.48.02-.73.05-.25.03-.53.09-.83.15-.3.04-.6.1-.91.2-.3.1-.6.24-.9.41-.54.23-1.06.56-1.56.99-.5.42-.99.92-1.46 1.49-.44.54-.79 1.21-1.06 2s-.44 1.7-.5 2.71c0 1.35.18 2.52.55 3.52.37 1 .92 1.83 1.66 2.51.77.64 1.57 1.16 2.39 1.55.82.39 1.68.63 2.59.73h.25c.07.03.13.05.18.05h.68c.4 0 .78-.03 1.13-.08.35-.05.7-.14 1.03-.28.17-.07.33-.13.48-.2.13-.06.27-.12.42-.18l.06-.02c.13-.1.28-.2.45-.3.17-.1.32-.22.45-.35.17-.1.33-.23.48-.38.15-.15.31-.29.48-.43.17-.17.33-.33.5-.48.17-.15.34-.31.5-.48v5.52c-.03.07-.07.12-.1.15-.4.32-.82.57-1.26.79-.43.22-.89.41-1.36.58-.47.13-1.04.24-1.71.33-.67.08-1.44.13-2.31.13h-.66c-1.54 0-2.98-.28-4.3-.84-1.33-.56-2.54-1.41-3.65-2.56-1.11-1.18-1.93-2.54-2.49-4.08-.55-1.54-.83-3.27-.83-5.19 0-1.69.27-3.26.8-4.71.53-1.45 1.34-2.79 2.42-4 1.07-1.22 2.4-2.13 3.97-2.74 1.58-.61 3.4-.91 5.48-.91 2.08 0 3.74.27 5.29.81 1.54.54 2.83 1.35 3.87 2.43 1.07 1.08 1.87 2.22 2.39 3.42.52 1.2.78 2.44.78 3.72v14.23h-4.78V47.35h.02zm12.68-7.95v-2.38h-4.38v24.31h4.38v-11.9c0-.3.02-.66.05-1.06 0-.37.03-.76.1-1.17.07-.4.17-.83.3-1.27.17-.57.39-1.14.68-1.7.29-.56.65-1.09 1.08-1.59.47-.51 1.04-.93 1.71-1.27.67-.34 1.47-.59 2.42-.76h1.21V36.2l-1.61.1c-.57 0-1.11.06-1.61.18s-.96.28-1.36.48c-.44.21-.81.42-1.13.66-.32.24-.61.49-.88.76l-.3.3c-.1.1-.18.2-.25.31-.1.1-.18.19-.22.25-.05.07-.11.12-.18.15l-.01.01zm24.58 4c-.07-.03-.14-.08-.2-.13-.07-.05-.13-.13-.2-.23-.07-.07-.14-.15-.23-.25-.08-.1-.18-.2-.28-.3-.1-.07-.21-.14-.33-.23-.12-.08-.23-.18-.33-.28-.14-.07-.27-.14-.4-.23-.13-.08-.29-.16-.45-.23-.33-.17-.72-.29-1.18-.36-.45-.07-.96-.1-1.54-.1-1.31 0-2.46.24-3.44.71-.99.47-1.82 1.16-2.49 2.08-.67.91-1.17 1.87-1.51 2.88-.34 1.02-.5 2.06-.5 3.14v.1c0 1.03.18 1.97.53 2.86.35.9.86 1.75 1.53 2.56s1.5 1.42 2.49 1.82c.99.41 2.12.61 3.4.61 1.38 0 2.52-.16 3.44-.48.92-.32 1.62-.8 2.09-1.44.47-.67.9-1.47 1.29-2.38.38-.91.73-1.94 1.03-3.09l.05-.1 4.38.2v.18c0 .05.02.09.05.13v.43c0 .05.02.09.05.13v.25c0 .27-.02.55-.05.84-.03.29-.08.58-.15.89-.03.13-.08.29-.12.46-.05.17-.1.32-.13.46-.07.17-.13.33-.17.48-.05.15-.11.31-.18.48-.4.84-.94 1.67-1.61 2.48-.67.81-1.49 1.57-2.46 2.28-.94.71-2.04 1.24-3.3 1.59-1.26.35-2.66.53-4.2.53-1.78 0-3.42-.28-4.93-.84-1.51-.56-2.87-1.41-4.08-2.56-1.24-1.18-2.16-2.51-2.76-3.98-.6-1.47-.9-3.1-.9-4.89 0-1.89.25-3.56.75-5.01.5-1.45 1.26-2.7 2.26-3.75 1.01-1.05 2.06-1.91 3.17-2.58 1.11-.67 2.27-1.16 3.47-1.47.14-.03.26-.06.38-.08.12-.02.25-.04.38-.08.13 0 .26 0 .38-.02s.24-.04.38-.08c.27-.03.53-.06.78-.08.25-.02.49-.03.73-.03 1.38 0 2.66.19 3.85.58 1.19.39 2.29.97 3.29 1.75.97.78 1.85 1.64 2.64 2.58.79.95 1.48 1.96 2.09 3.04l-16.65 9.07-1.96-3.54 11.87-6.79-.02.02zM35.68 48.56l-3.59 3.74c1.27 2.78 4.08 4.68 7.32 4.63 3.23-.05 5.98-2.05 7.16-4.87l4.94-.08c-1.33 5.47-6.18 9.56-12.03 9.65-4.52.07-8.52-2.26-10.8-5.83l-3.51 3.63L25 48.74l10.68-.17v-.01zm12.2698-8.78c-2.31-2.21-5.44-3.54-8.88-3.49-6.26.1-11.38 4.79-12.25 10.83l4.77-.08c.84-3.42 3.89-5.99 7.55-6.05 2.14-.03 4.09.79 5.54 2.16l-3.65 3.78 10.68-.18-.17-10.7-3.6 3.72.01.01zm26.1901 5.25c.29.72.43 1.46.43 2.2v13.98h4.78V46.98c0-1.28-.26-2.52-.78-3.72-.52-1.2-1.32-2.34-2.39-3.42-1.04-1.08-2.33-1.89-3.87-2.43-1.54-.54-3.31-.81-5.28-.81-2.08 0-3.91.3-5.48.91-1.58.61-2.9 1.52-3.97 2.74-1.07 1.22-1.88 2.55-2.41 4-.54 1.45-.81 3.02-.81 4.71 0 1.92.28 3.66.83 5.19.55 1.54 1.38 2.9 2.49 4.08 1.11 1.15 2.32 2 3.65 2.56 1.32.56 2.76.84 4.3.84h.66c.87 0 1.64-.05 2.31-.13.67-.09 1.24-.2 1.71-.33.47-.17.92-.36 1.36-.58.44-.22.86-.47 1.26-.79.03-.03.07-.08.1-.15v-5.52c-.17.17-.34.33-.5.48-.17.15-.34.31-.5.48-.17.14-.33.28-.48.43-.15.15-.31.28-.48.38-.13.14-.28.25-.45.36-.17.1-.32.2-.45.3-.17.07-.33.13-.48.2-.15.07-.31.14-.48.2-.34.13-.68.23-1.03.28-.35.05-.73.07-1.13.07h-.68c-.05 0-.11-.02-.18-.05h-.25c-.91-.1-1.77-.34-2.59-.73-.83-.39-1.62-.9-2.39-1.55-.74-.67-1.29-1.51-1.66-2.5-.37-1-.55-2.17-.55-3.52.07-1.01.23-1.92.5-2.71s.62-1.46 1.06-2c.47-.57.96-1.07 1.46-1.49.5-.42 1.02-.75 1.56-.99.3-.17.6-.3.91-.4.3-.1.6-.17.91-.2.3-.07.58-.12.83-.15s.49-.05.73-.05c1.48 0 2.73.17 3.77.51 1.04.34 1.85.84 2.42 1.52.57.64 1 1.33 1.28 2.05l-.04-.02zm8.7302 3.82c0-1.76.23-3.32.68-4.69.45-1.37 1.13-2.54 2.04-3.52.9-.98 1.85-1.79 2.84-2.43.99-.64 2.04-1.13 3.14-1.47.3-.1.6-.19.91-.25.3-.07.6-.12.9-.15.17-.03.32-.06.45-.08.13-.02.28-.02.45-.02.13-.03.28-.05.43-.05h.43c1.78 0 3.34.21 4.68.63 1.3399.42 2.4799 1.07 3.4199 1.95.9.84 1.69 1.73 2.34 2.66.65.93 1.15 1.9 1.48 2.91.13.4.25.81.35 1.21.1.41.17.81.2 1.22.07.4.12.79.15 1.14.03.35.05.7.05 1.04 0 .34-.02.7-.05 1.09-.03.39-.09.78-.15 1.19-.03.4-.1.81-.2 1.22-.1.41-.22.81-.35 1.22-.34.98-.79 1.92-1.36 2.84-.57.91-1.29 1.79-2.16 2.63-.84.85-1.9 1.5-3.17 1.98-1.2699.47-2.7499.78-4.4299.91-.5 0-1.01-.03-1.51-.1s-1.04-.17-1.61-.3c-.54-.14-1.15-.32-1.84-.56-.69-.24-1.42-.56-2.19-.96v-4.86c.5.3.96.56 1.38.76.42.2.8.37 1.13.51.33.13.66.25.98.35.32.1.63.19.93.25.17.04.34.07.53.1.18.04.38.05.58.05.17.03.35.05.55.05h.65c1.27 0 2.39-.19 3.35-.58.96-.39 1.7299-.99 2.3399-1.8.6-.81 1.06-1.72 1.39-2.71.32-.99.47-2.08.47-3.27 0-1.28-.21-2.44-.63-3.47-.42-1.03-1.05-1.92-1.89-2.66-.8399-.74-1.7099-1.3-2.6199-1.67-.91-.37-1.84-.56-2.82-.56-.23 0-.47.02-.7.05-.24.04-.49.09-.76.15-.27.03-.54.1-.8.2-.27.1-.54.22-.81.36-.6.3-1.18.7-1.74 1.19-.55.49-1.08 1.07-1.58 1.75-.5.64-.88 1.42-1.13 2.33-.25.91-.38 1.96-.38 3.14v22.24h-4.38V48.85h.04zM113.16 28.92c-.32.12-.61.28-.88.48-.3.24-.52.51-.66.83-.13.32-.2.67-.2 1.04v.1c0 .44.07.83.2 1.19.13.35.35.65.66.89.3.24.62.41.96.51.33.1.67.13 1.01.1.33 0 .65-.05.95-.15.3-.1.61-.27.91-.51.27-.23.48-.52.63-.86.15-.34.23-.73.23-1.16 0-.43-.08-.82-.23-1.14-.15-.32-.38-.6-.68-.83-.3-.23-.6-.4-.91-.51-.3-.1-.64-.15-1.01-.15-.33 0-.66.06-.98.18v-.01zm-1.38 32.29h4.38V36.9h-4.38v24.32-.01zm15.08-30.29h-4.73v23.23c0 .08.01.16.05.23.07.88.24 1.72.53 2.53.28.81.7 1.57 1.23 2.28.54.71 1.22 1.23 2.06 1.57.84.34 1.83.51 2.97.51h.35s.06-.05.08-.05h6.21v-4.41l-5.58.1c-.81 0-1.44-.08-1.89-.23-.45-.15-.75-.4-.88-.73-.13-.34-.23-.69-.3-1.06-.07-.37-.1-.79-.1-1.27V41.26h9.15V36.9h-9.15v-5.98zm30.53 16.31c0-.74-.14-1.48-.43-2.2-.29-.73-.71-1.41-1.28-2.05-.57-.67-1.38-1.18-2.42-1.52-1.04-.34-2.3-.51-3.77-.51-.24 0-.48.02-.73.05-.25.03-.53.09-.83.15-.3.03-.61.1-.91.2-.3.1-.6.24-.91.4-.54.24-1.06.57-1.56.99-.51.42-.99.92-1.46 1.49-.44.54-.79 1.21-1.06 2s-.44 1.7-.5 2.71c0 1.35.19 2.53.55 3.52.37 1 .92 1.83 1.66 2.5.77.64 1.57 1.16 2.39 1.55.82.39 1.69.63 2.59.73h.25c.07.03.13.05.18.05h.68c.4 0 .78-.02 1.13-.07.35-.05.7-.14 1.04-.28.17-.07.33-.13.48-.2.15-.07.31-.13.48-.2.13-.1.28-.2.45-.3.17-.1.32-.22.45-.36.17-.1.33-.23.48-.38.15-.15.31-.29.48-.43.17-.17.33-.33.5-.48.17-.15.33-.31.5-.48v5.52c-.03.07-.07.12-.1.15-.4.32-.82.57-1.26.79-.44.22-.89.41-1.36.58-.47.13-1.04.24-1.71.33-.67.08-1.44.13-2.32.13h-.58c-1.62 0-3.05-.28-4.38-.84-1.32-.56-2.54-1.41-3.65-2.56-1.1-1.18-1.94-2.54-2.49-4.08-.55-1.53-.83-3.27-.83-5.19 0-1.69.27-3.26.81-4.71.53-1.45 1.34-2.79 2.41-4 1.07-1.22 2.4-2.13 3.97-2.74 1.58-.61 3.4-.91 5.48-.91 2.08 0 3.74.27 5.28.81s2.83 1.35 3.87 2.43c1.07 1.08 1.87 2.22 2.39 3.42.52 1.2.78 2.44.78 3.72v14.23h-4.78V47.21l.04.02zm14.24 13.98h-4.73V25.7h4.73v35.51zm218.63-24.118v3.864h1.26v-3.864h1.272V36H389v1.092h1.26zM398.564 36h-1.068l-1.332 2.916L394.82 36h-1.044l-.6 4.956h1.272l.288-2.58.96 1.98h.96l.948-2.004.288 2.604h1.272l-.6-4.956z"/></svg>